<?xml version="1.0" standalone="no"?>
<!DOCTYPE svg PUBLIC "-//W3C//DTD SVG 20010904//EN"
 "http://www.w3.org/TR/2001/REC-SVG-20010904/DTD/svg10.dtd">
<svg version="1.0" xmlns="http://www.w3.org/2000/svg"
 width="26.000000pt" height="26.000000pt" viewBox="0 0 26.000000 26.000000"
 preserveAspectRatio="xMidYMid meet">

<g transform="translate(0.000000,26.000000) scale(0.100000,-0.100000)"
fill="#000000" stroke="none">
<path d="M105 230 c-8 -13 43 -100 59 -100 7 0 16 4 22 10 5 5 15 5 23 1 10
-6 3 -12 -23 -21 -31 -10 -42 -9 -70 4 -18 9 -44 20 -57 25 -24 9 -23 10 9 16
48 11 40 29 -10 21 -56 -9 -58 -11 -58 -62 l0 -45 70 -34 c74 -35 86 -35 163
-4 26 11 28 16 25 58 -3 44 -5 46 -46 61 -28 11 -50 28 -62 48 -20 33 -34 40
-45 22z m134 -142 c-1 -31 -1 -32 -9 -8 l-8 25 -2 -25 c-1 -23 -2 -23 -10 -5
-8 18 -9 18 -10 -5 l-2 -25 -8 25 c-8 25 -8 25 -10 -5 -2 -30 -2 -30 -10 -5
-7 23 -8 23 -9 3 -2 -37 -21 -37 -21 0 0 30 4 35 33 45 58 18 67 15 66 -20z"/>
</g>
</svg>
